:SAMPLES-PER-SECOND 30
:FULLY-SPECIFIED
:DEGREES
902
root  17.3602 39.3682 19.2989 168.045 -68.0116 -176.062
RightUpLeg  17.6569 -9.52314 -2.29768
RightLeg  11.5054 -7.64305 3.46857
RightFoot  -17.057 -0.136663 -0.418678
RightToes  0.00048216 0.542163 -0.142577
Spine  12.9353 -0.899133 8.99816
Spine1  11.5892 0.555927 -1.43839
HEad  -5.97848 9.32084 -8.09079
LeftShoulder1  6.96539 -12.2942 -37.9411
LeftArm  -7.89788 15.6408 -23.7227
LeftForeArm  94.3068 -79.2192 -103.269
LeftHand  -0.25398 0.0180481 5.50724
RightShoulder  4.68764 8.54482 32.9647
RightArm  -7.86818 -27.7575 23.2343
RightForeArm  53.252 77.343 106.616
RightHand  0.287827 -11.4478 -6.81425
LeftUpLeg  -18.6048 11.9612 1.8557
LeftLeg  11.6387 1.51252 -0.78955
LeftFoot  -2.11438 0.15806 -1.77406
LeftToes  1.06244e-005 4.65855e-005 -8.18506e-006
903
root  15.5303 39.0315 18.9791 169.989 -69.6814 -177.42
RightUpLeg  19.8607 -12.0687 -5.33557
RightLeg  12.9059 -5.62618 3.92189
RightFoot  -18.4234 -0.0833692 0.680043
RightToes  0.00048216 0.542163 -0.142577
Spine  11.5029 -1.53843 9.23186
Spine1  11.5411 0.343935 -3.39764
HEad  -5.35341 9.1908 -6.64666
LeftShoulder1  6.68056 -11.8998 -37.2465
LeftArm  -8.59466 16.0754 -24.1567
LeftForeArm  96.9158 -79.0716 -106.099
LeftHand  -0.25398 0.0180481 5.50724
RightShoulder  4.66303 8.45075 33.0643
RightArm  -7.77857 -27.0972 23.9849
RightForeArm  52.3258 77.3925 105.784
RightHand  0.312494 -11.4444 -7.26806
LeftUpLeg  -17.3879 4.40573 2.74411
LeftLeg  2.65007 16.6239 -3.55463
LeftFoot  -1.67978 0.183056 -2.05254
LeftToes  1.06244e-005 4.65855e-005 -8.18506e-006
904
root  13.6398 38.7307 18.525 173.665 -68.6189 179.048
RightUpLeg  21.6133 -15.4342 -9.72004
RightLeg  15.9383 0.579986 3.45506
RightFoot  -19.6639 0.0964428 3.03025
RightToes  0.00048216 0.542163 -0.142577
Spine  10.6546 -0.694438 7.8941
Spine1  11.3514 1.43861 -4.48082
HEad  -4.25296 8.98669 -5.49611
LeftShoulder1  6.43298 -11.4924 -36.7895
LeftArm  -8.93175 16.5447 -24.7136
LeftForeArm  99.0756 -78.952 -108.214
LeftHand  -0.25398 0.0180481 5.50724
RightShoulder  4.61062 8.32897 33.0231
RightArm  -7.62055 -26.8519 24.5679
RightForeArm  49.9406 77.5504 103.07
RightHand  0.31524 -11.5373 -7.2243
LeftUpLeg  -17.0635 4.62391 1.5093
LeftLeg  1.73978 24.8726 -4.93162
LeftFoot  0.568227 -0.0523699 0.394048
LeftToes  1.06244e-005 4.65855e-005 -8.18506e-006
905
root  11.7824 38.4282 17.912 177.16 -66.406 174.558
RightUpLeg  22.9518 -16.0625 -13.7673
RightLeg  20.6518 6.19183 2.61255
RightFoot  -19.9466 0.537623 9.10993
RightToes  0.00048216 0.542163 -0.142577
Spine  11.3295 1.23709 3.88736
Spine1  10.8204 2.84311 -3.23521
HEad  -3.31438 8.60815 -5.20497
LeftShoulder1  6.35656 -11.2886 -36.8602
LeftArm  -8.98599 16.7802 -25.2559
LeftForeArm  100.277 -78.9349 -108.891
LeftHand  -0.25398 0.0180481 5.50724
RightShoulder  4.61588 8.30098 33.1592
RightArm  -7.3966 -26.8858 24.4134
RightForeArm  45.3907 77.7539 98.1437
RightHand  0.302293 -11.8931 -6.65739
LeftUpLeg  -17.5966 11.9819 -1.90219
LeftLeg  8.33685 20.741 -2.31055
LeftFoot  3.87627 -0.576408 4.11419
LeftToes  1.06244e-005 4.65855e-005 -8.18506e-006
906
root  9.92397 38.1248 17.3915 -179.596 -67.2324 170.352
RightUpLeg  22.0308 -13.6695 -15.8523
RightLeg  28.7968 4.61938 2.41197
RightFoot  -15.6697 0.442402 15.056
RightToes  0.00048216 0.542163 -0.142577
Spine  11.9348 1.97531 -0.520048
Spine1  10.1503 2.51793 -0.855607
HEad  -2.89828 8.04897 -5.21669
LeftShoulder1  6.50952 -11.4697 -37.3443
LeftArm  -8.7615 16.4043 -25.5777
LeftForeArm  97.7581 -79.1481 -105.706
LeftHand  -0.25398 0.0180481 5.50724
RightShoulder  4.69485 8.36615 33.6073
RightArm  -7.47074 -26.7878 23.8734
RightForeArm  37.9057 77.8794 90.42
RightHand  0.275588 -12.1593 -5.98434
LeftUpLeg  -19.6582 22.1189 -8.1436
LeftLeg  16.3648 6.45247 1.84563
LeftFoot  5.28803 -1.13527 7.60509
LeftToes  1.06244e-005 4.65855e-005 -8.18506e-006
907
root  8.07188 38.0146 17.0224 -175.635 -70.2629 165.907
RightUpLeg  18.1846 -14.2713 -17.9564
RightLeg  40.4828 1.50386 1.03613
RightFoot  -3.87161 -0.862105 14.2058
RightToes  0.00048216 0.542163 -0.142577
Spine  12.1562 1.1489 -3.38889
Spine1  9.84803 1.03116 0.519002
HEad  -2.48519 7.61435 -5.10366
LeftShoulder1  6.80688 -11.9638 -37.8611
LeftArm  -8.19344 15.5593 -25.4567
LeftForeArm  90.2243 -79.452 -97.958
LeftHand  -0.25398 0.0180481 5.50724
RightShoulder  4.77976 8.45197 34.0307
RightArm  -7.86177 -26.2508 23.6871
RightForeArm  28.4437 77.7343 81.041
RightHand  0.260453 -12.1621 -5.73653
LeftUpLeg  -19.6618 18.7554 -9.82145
LeftLeg  22.4196 5.71824 3.05314
LeftFoot  2.69553 -1.13784 9.05132
LeftToes  1.06244e-005 4.65855e-005 -8.18506e-006
908
root  6.38843 38.0614 16.6998 -172.209 -71.9399 162.045
RightUpLeg  11.4642 -14.457 -18.8537
RightLeg  52.4128 -0.881667 -1.58825
RightFoot  9.51068 -1.28938 7.30428
RightToes  0.00048216 0.542163 -0.142577
Spine  12.7622 0.408228 -5.14621
Spine1  9.85594 -0.0291281 0.617157
HEad  -1.66206 7.72412 -5.40093
LeftShoulder1  7.08692 -12.4601 -38.2333
LeftArm  -7.41653 14.7569 -24.9864
LeftForeArm  80.4663 -79.5328 -88.5559
LeftHand  -0.25398 0.0180481 5.50724
RightShoulder  4.81245 8.52495 34.0606
RightArm  -7.9037 -25.182 23.7408
RightForeArm  19.7421 77.3327 73.1428
RightHand  0.288038 -12.297 -6.08241
LeftUpLeg  -18.0567 16.952 -10.484
LeftLeg  26.1276 6.85077 3.97722
LeftFoot  -1.66959 -0.693867 8.27352
LeftToes  1.06244e-005 4.65855e-005 -8.18506e-006
909
root  4.8496 38.2023 16.3586 -172.421 -71.9345 161.276
RightUpLeg  4.68857 -13.8233 -18.4499
RightLeg  61.0194 -1.65359 -3.71763
RightFoot  14.9309 -0.317151 1.63727
RightToes  0.00048216 0.542163 -0.142577
Spine  14.546 0.309395 -6.16642
Spine1  9.55931 -0.557375 0.793083
HEad  -1.01578 8.42687 -6.44755
LeftShoulder1  7.25202 -12.7229 -38.5196
LeftArm  -6.81301 14.2676 -24.5975
LeftForeArm  72.2523 -79.379 -80.8769
LeftHand  -0.25398 0.0180481 5.50724
RightShoulder  4.80756 8.605 33.7473
RightArm  -7.14609 -23.7201 23.4677
RightForeArm  13.3379 76.9206 68.2779
RightHand  0.35465 -12.7133 -6.80033
LeftUpLeg  -14.828 16.6703 -9.98511
LeftLeg  27.7413 7.5318 4.62023
LeftFoot  -4.97083 -0.378738 7.38193
LeftToes  1.06244e-005 4.65855e-005 -8.18506e-006
910
root  3.30628 38.5054 16.0203 -176.07 -72.291 163.871
RightUpLeg  -0.624685 -14.5936 -17.0716
RightLeg  64.5838 -1.80128 -4.73611
RightFoot  12.4867 0.138674 -0.201891
RightToes  0.00048216 0.542163 -0.142577
Spine  16.7307 -0.0640687 -5.89851
Spine1  9.05476 -1.27747 1.49471
HEad  -1.09316 9.36884 -7.57559
LeftShoulder1  7.32566 -12.8176 -38.7029
LeftArm  -6.58734 14.0132 -24.5714
LeftForeArm  66.3439 -79.1455 -75.3359
LeftHand  -0.25398 0.0180481 5.50724
RightShoulder  4.80696 8.70022 33.4033
RightArm  -6.14966 -22.325 23.0386
RightForeArm  8.38571 76.5387 64.7572
RightHand  0.411737 -12.9064 -7.49737
LeftUpLeg  -10.6768 15.1976 -8.41641
LeftLeg  27.9106 8.26294 5.06426
LeftFoot  -6.98199 -0.232795 7.22362
LeftToes  1.06244e-005 4.65855e-005 -8.18506e-006
911
root  1.77093 38.898 15.6727 179.279 -73.5355 167.926
RightUpLeg  -4.78269 -16.8867 -15.0633
RightLeg  62.9669 -1.95022 -4.73634
RightFoot  7.98119 -0.207336 1.54686
RightToes  0.00048216 0.542163 -0.142577
Spine  18.4202 -0.945756 -4.82869
Spine1  8.79193 -2.27223 1.93978
HEad  -1.33483 9.99553 -7.91984
LeftShoulder1  7.38789 -12.9442 -38.7343
LeftArm  -6.5392 13.8953 -24.7771
LeftForeArm  62.1614 -78.9091 -71.2125
LeftHand  -0.25398 0.0180481 5.50724
RightShoulder  4.80524 8.77436 33.1972
RightArm  -5.78208 -21.6038 23.115
RightForeArm  3.67197 75.9991 60.378
RightHand  0.407799 -12.6387 -7.67418
LeftUpLeg  -6.54027 13.1661 -6.57601
LeftLeg  27.1928 8.97156 5.31693
LeftFoot  -8.89935 -0.0882581 6.53998
LeftToes  1.06244e-005 4.65855e-005 -8.18506e-006
912
root  0.249505 39.2552 15.2661 173.853 -74.7892 173.237
RightUpLeg  -8.30852 -19.3742 -12.1778
RightLeg  57.141 -2.83198 -5.12208
RightFoot  5.20917 -0.375859 2.79608
RightToes  0.00048216 0.542163 -0.142577
Spine  19.4957 -1.79373 -3.49332
Spine1  8.49143 -3.0984 2.13496
HEad  -1.0145 10.1577 -7.62076
LeftShoulder1  7.46344 -13.1147 -38.7285
LeftArm  -6.52765 13.8782 -25.0933
LeftForeArm  59.7231 -78.728 -68.3713
LeftHand  -0.25398 0.0180481 5.50724
RightShoulder  4.79452 8.78034 33.0883
RightArm  -6.17268 -21.7515 23.7217
RightForeArm  -0.317697 75.2976 55.6065
RightHand  0.354947 -12.4684 -7.01819
LeftUpLeg  -2.58655 12.3052 -4.34235
LeftLeg  25.8532 8.65913 4.88875
LeftFoot  -10.8886 0.0459025 5.10478
LeftToes  1.06244e-005 4.65855e-005 -8.18506e-006
913
root  -1.27062 39.4939 14.8418 170.771 -75.8969 176.562
RightUpLeg  -10.8839 -21.667 -9.57344
RightLeg  47.5082 -4.62561 -5.69995
RightFoot  3.18634 -0.315014 2.6554
RightToes  0.00048216 0.542163 -0.142577
Spine  20.1333 -2.41498 -2.9524
Spine1  7.94511 -3.81906 2.37921
HEad  -0.401288 10.0881 -7.3696
LeftShoulder1  7.49798 -13.1621 -38.8045
LeftArm  -6.79104 13.8843 -25.647
LeftForeArm  58.9469 -78.6374 -66.6974
LeftHand  -0.25398 0.0180481 5.50724
RightShoulder  4.75436 8.69601 33.0291
RightArm  -6.81778 -22.436 24.2845
RightForeArm  -2.05515 74.8208 52.8124
RightHand  0.297661 -12.7807 -5.89145
LeftUpLeg  0.871189 11.8659 -2.85173
LeftLeg  24.2317 7.79461 4.1581
LeftFoot  -12.2916 0.112522 4.46641
LeftToes  1.06244e-005 4.65855e-005 -8.18506e-006
914
root  -2.82435 39.5801 14.4281 173.652 -77.3624 174.213
RightUpLeg  -12.2101 -24.9989 -8.44273
RightLeg  34.1254 -5.34637 -4.56026
RightFoot  1.70807 -0.407293 3.65151
RightToes  0.00048216 0.542163 -0.142577
Spine  20.1597 -3.0094 -3.86708
Spine1  7.48868 -4.72511 2.53185
HEad  -0.189244 10.0325 -7.3578
LeftShoulder1  7.46089 -13.0351 -38.9203
LeftArm  -7.47255 13.8701 -26.3314
LeftForeArm  59.1656 -78.6182 -65.8699
LeftHand  -0.25398 0.0180481 5.50724
RightShoulder  4.69506 8.54658 33.0202
RightArm  -7.40521 -23.3447 24.669
RightForeArm  -0.989974 74.906 53.1656
RightHand  0.265609 -13.1718 -5.17055
LeftUpLeg  3.5569 10.7253 -3.24685
LeftLeg  22.9167 7.55223 3.8342
LeftFoot  -13.6476 0.179138 4.79476
LeftToes  1.06244e-005 4.65855e-005 -8.18506e-006
915
root  -4.40992 39.5979 13.9137 -179.895 -78.4707 168.804
RightUpLeg  -12.5581 -25.2776 -8.33185
RightLeg  17.7907 -7.60223 -1.08442
RightFoot  2.08813 -0.573485 4.97472
RightToes  0.00048216 0.542163 -0.142577
Spine  19.2896 -3.34984 -5.47004
Spine1  7.42066 -5.42582 3.02565
HEad  -0.401735 9.99477 -7.36041
LeftShoulder1  7.41859 -12.898 -39.0338
LeftArm  -8.19145 13.8868 -26.651
LeftForeArm  59.431 -78.6126 -65.3843
LeftHand  -0.25398 0.0180481 5.50724
RightShoulder  4.64758 8.41686 33.0457
RightArm  -8.06666 -24.4605 25.2572
RightForeArm  1.99257 75.3694 55.6701
RightHand  0.273213 -13.2494 -5.2408
LeftUpLeg  5.96773 10.1612 -3.83614
LeftLeg  21.2103 7.07281 3.24221
LeftFoot  -15.3622 0.241232 4.30654
LeftToes  1.06244e-005 4.65855e-005 -8.18506e-006
916
root  -6.01295 39.4628 13.1465 -174.164 -78.5175 164.449
RightUpLeg  -11.7502 -12.8302 -10.4951
RightLeg  1.70406 -19.9076 4.55996
RightFoot  2.27996 -0.706272 6.08613
RightToes  0.00048216 0.542163 -0.142577
Spine  17.8599 -2.88932 -7.74419
Spine1  7.36588 -5.46692 4.42082
HEad  -0.485699 9.80793 -7.35801
LeftShoulder1  7.45487 -12.9075 -39.2193
LeftArm  -8.48413 13.9773 -26.4141
LeftForeArm  58.9237 -78.5504 -64.4944
LeftHand  -0.25398 0.0180481 5.50724
RightShoulder  4.62862 8.37751 33.0153
RightArm  -8.74055 -25.6772 26.0415
RightForeArm  4.98743 75.7874 58.2127
RightHand  0.297937 -13.2182 -5.60929
LeftUpLeg  8.00762 11.4511 -2.87335
LeftLeg  20.2331 5.00942 1.77387
LeftFoot  -17.4726 0.244522 2.62287
LeftToes  1.06244e-005 4.65855e-005 -8.18506e-006
